<svg width="94" height="23" viewBox="0 0 94 23" fill="none" xmlns="http://www.w3.org/2000/svg">
<path d="M0.792127 0.78453H9.23481C10.7541 0.78453 12.0387 1.01588 13.0884 1.47859C14.145 1.93439 14.9392 2.5732 15.471 3.39503C16.0028 4.20994 16.2686 5.15608 16.2686 6.23342C16.2686 7.04834 16.1029 7.77003 15.7714 8.39848C15.4468 9.02003 14.9945 9.53108 14.4144 9.93163C13.8412 10.3322 13.1816 10.6153 12.4358 10.7811V10.9883C13.2507 11.0297 14.0138 11.2645 14.7251 11.6927C15.4434 12.114 16.0166 12.7113 16.4448 13.4848C16.8798 14.2514 17.0974 15.1423 17.0974 16.1575C17.0974 17.2901 16.8142 18.2983 16.2479 19.1823C15.6885 20.0594 14.8598 20.75 13.7617 21.2541C12.6637 21.7514 11.3377 22 9.78384 22H0.792127V0.78453ZM8.91367 18.3847C10.136 18.3847 11.0477 18.1499 11.6485 17.6802C12.2493 17.2106 12.5497 16.558 12.5497 15.7224C12.5497 15.1285 12.4047 14.6036 12.1146 14.1478C11.8315 13.6851 11.4206 13.326 10.8819 13.0704C10.3501 12.8149 9.72514 12.6872 9.00691 12.6872H5.19475V18.3847H8.91367ZM8.58218 9.67265C9.20373 9.67265 9.75622 9.56215 10.2396 9.34116C10.73 9.12017 11.1133 8.80594 11.3895 8.39848C11.6727 7.98412 11.8142 7.50069 11.8142 6.9482C11.8142 6.43025 11.6899 5.9779 11.4413 5.59116C11.1927 5.19751 10.8301 4.89365 10.3536 4.67956C9.88398 4.46547 9.32113 4.35842 8.66506 4.35842H5.19475V9.67265H8.58218ZM25.7963 22H21.3937V0.78453H25.7963V22ZM42.3904 6.85497C42.3075 6.01243 41.9449 5.35635 41.3026 4.88674C40.6673 4.41713 39.8109 4.18232 38.7336 4.18232C38.0084 4.18232 37.3834 4.28591 36.8586 4.49309C36.3406 4.70028 35.9435 4.98688 35.6673 5.3529C35.398 5.71892 35.2633 6.13674 35.2633 6.60635C35.2495 7.31768 35.543 7.87707 36.1438 8.28453C36.7515 8.69199 37.5872 9.02003 38.6507 9.26865L40.5672 9.73481C42.5216 10.1768 44.0651 10.9054 45.1977 11.9206C46.3372 12.9289 46.9104 14.2721 46.9173 15.9503C46.9104 17.2417 46.5789 18.3639 45.9228 19.317C45.2736 20.27 44.331 21.0055 43.0948 21.5235C41.8655 22.0414 40.4014 22.3004 38.7025 22.3004C36.9898 22.3004 35.5015 22.038 34.2377 21.5131C32.9739 20.9883 31.9933 20.2113 31.2957 19.1823C30.5982 18.1464 30.2288 16.8826 30.1873 15.3909H34.4656C34.514 16.0884 34.7177 16.6754 35.0768 17.1519C35.4428 17.6285 35.9297 17.9876 36.5375 18.2293C37.1521 18.471 37.8565 18.5919 38.6507 18.5919C39.4104 18.5919 40.0768 18.4814 40.65 18.2604C41.2301 18.0394 41.6756 17.7286 41.9864 17.328C42.304 16.9206 42.4629 16.4544 42.4629 15.9296C42.4629 15.4599 42.3247 15.0628 42.0485 14.7383C41.7723 14.4068 41.3717 14.1271 40.8468 13.8992C40.3289 13.6644 39.659 13.4468 38.8372 13.2465L36.5167 12.6768C32.6631 11.7376 30.7398 9.81077 30.7467 6.89641C30.7398 5.6395 31.0817 4.52762 31.7723 3.56077C32.4629 2.58702 33.4159 1.83425 34.6314 1.30249C35.8538 0.763811 37.2315 0.494474 38.7647 0.494474C40.3116 0.494474 41.6756 0.763811 42.8565 1.30249C44.0375 1.83425 44.956 2.58356 45.612 3.55041C46.2681 4.51036 46.6065 5.61188 46.6272 6.85497H42.3904ZM70.7012 11.3923C70.7012 13.6436 70.2696 15.5912 69.4063 17.2348C68.55 18.8785 67.3725 20.1319 65.8739 20.9952C64.3752 21.8584 62.6798 22.2901 60.7875 22.2901C58.8953 22.2901 57.1998 21.8584 55.7012 20.9952C54.2026 20.125 53.0251 18.8681 52.1687 17.2244C51.3124 15.5808 50.8842 13.6367 50.8842 11.3923C50.8842 9.14088 51.3124 7.19337 52.1687 5.54972C53.0251 3.90608 54.2026 2.65262 55.7012 1.78936C57.1998 0.926104 58.8953 0.494474 60.7875 0.494474C62.6798 0.494474 64.3752 0.926104 65.8739 1.78936C67.3725 2.65262 68.55 3.90608 69.4063 5.54972C70.2696 7.19337 70.7012 9.14088 70.7012 11.3923ZM55.349 11.3923C55.349 12.8771 55.5734 14.1443 56.0223 15.1941C56.4712 16.2369 57.1031 17.0311 57.9181 17.5767C58.733 18.1153 59.6895 18.3847 60.7875 18.3847C61.8856 18.3847 62.8421 18.1153 63.657 17.5767C64.4788 17.038 65.1142 16.2438 65.5631 15.1941C66.012 14.1443 66.2364 12.8771 66.2364 11.3923C66.2364 9.90746 66.012 8.64019 65.5631 7.59047C65.1142 6.54075 64.4788 5.74655 63.657 5.20787C62.8421 4.6692 61.8856 4.39986 60.7875 4.39986C59.6895 4.39986 58.733 4.67265 57.9181 5.21823C57.1031 5.75691 56.4712 6.5511 56.0223 7.60083C55.5734 8.64365 55.349 9.90746 55.349 11.3923ZM93.0695 22H89.2573L79.9341 8.52279H79.7787V22H75.3761V0.78453H79.2504L88.5011 14.2514H88.6876V0.78453H93.0695V22Z" fill="black"/>
</svg>
